<svg width="201" height="241" viewBox="0 0 201 241" fill="none" xmlns="http://www.w3.org/2000/svg">
<g opacity="0.3">
<path opacity="0.3" d="M139.811 49.25C134.344 49.2447 129.102 47.0704 125.236 43.2046C121.37 39.3387 119.196 34.097 119.191 28.6299V1.85854e-06H27.0607C23.526 -0.00131167 20.0255 0.693646 16.7595 2.04541C13.4935 3.39718 10.5258 5.37922 8.02588 7.87818C5.526 10.3771 3.54292 13.3441 2.18994 16.6096C0.836962 19.8751 0.140625 23.3752 0.140625 26.9099V189.13C0.140625 192.665 0.836962 196.165 2.18994 199.43C3.54292 202.696 5.526 205.663 8.02588 208.162C10.5258 210.661 13.4935 212.643 16.7595 213.994C20.0255 215.346 23.526 216.041 27.0607 216.04H137.661C144.798 216.04 151.642 213.205 156.689 208.158C161.735 203.112 164.571 196.267 164.571 189.13V49.25H139.811Z" fill="#0072FF"/>
</g>
<path d="M164.571 49.25H139.812C134.344 49.2447 129.103 47.0704 125.237 43.2046C121.371 39.3387 119.197 34.097 119.191 28.6299V0L164.571 49.25Z" fill="#0072FF"/>
<path d="M130.742 83.7302H27.5017C26.5098 83.7302 25.5586 83.3362 24.8572 82.6348C24.1558 81.9334 23.7617 80.9821 23.7617 79.9902C23.7604 79.4982 23.8562 79.0108 24.0436 78.5559C24.231 78.101 24.5062 77.6875 24.8537 77.3391C25.2011 76.9908 25.6137 76.7145 26.0681 76.5259C26.5225 76.3373 27.0097 76.2402 27.5017 76.2402H130.742C131.736 76.2402 132.69 76.6354 133.393 77.3386C134.097 78.0419 134.492 78.9957 134.492 79.9902C134.489 80.9831 134.093 81.9344 133.39 82.6355C132.687 83.3366 131.735 83.7302 130.742 83.7302Z" fill="#0072FF"/>
<path d="M130.742 106.1H27.5017C26.5098 106.1 25.5586 105.706 24.8572 105.005C24.1558 104.303 23.7617 103.352 23.7617 102.36C23.7604 101.868 23.8562 101.381 24.0436 100.926C24.231 100.471 24.5062 100.058 24.8537 99.7092C25.2011 99.3609 25.6137 99.0846 26.0681 98.896C26.5225 98.7074 27.0097 98.6103 27.5017 98.6104H130.742C131.736 98.6104 132.69 99.0052 133.393 99.7085C134.097 100.412 134.492 101.366 134.492 102.36C134.489 103.353 134.093 104.304 133.39 105.005C132.687 105.706 131.735 106.1 130.742 106.1Z" fill="#0072FF"/>
<path d="M130.742 128.47H27.5017C27.0097 128.47 26.5225 128.373 26.0681 128.185C25.6137 127.996 25.2011 127.72 24.8537 127.372C24.5062 127.023 24.231 126.61 24.0436 126.155C23.8562 125.7 23.7604 125.212 23.7617 124.72C23.7617 123.729 24.1558 122.777 24.8572 122.076C25.5586 121.375 26.5098 120.98 27.5017 120.98H130.742C131.735 120.98 132.687 121.374 133.39 122.075C134.093 122.776 134.489 123.728 134.492 124.72C134.492 125.715 134.097 126.669 133.393 127.372C132.69 128.075 131.736 128.47 130.742 128.47Z" fill="#0072FF"/>
<path d="M90.0017 150.84H27.5017C27.0097 150.84 26.5225 150.743 26.0681 150.554C25.6137 150.365 25.2011 150.089 24.8537 149.74C24.5062 149.392 24.231 148.979 24.0436 148.524C23.8562 148.069 23.7604 147.582 23.7617 147.09C23.7617 146.098 24.1558 145.146 24.8572 144.445C25.5586 143.743 26.5098 143.35 27.5017 143.35H90.0017C90.9936 143.35 91.9449 143.743 92.6463 144.445C93.3476 145.146 93.7417 146.098 93.7417 147.09C93.743 147.582 93.6472 148.069 93.4599 148.524C93.2725 148.979 92.9972 149.392 92.6498 149.74C92.3024 150.089 91.8897 150.365 91.4353 150.554C90.9809 150.743 90.4937 150.84 90.0017 150.84Z" fill="#0072FF"/>
<path d="M184.092 170.61H59.0522C50.1825 170.61 42.9922 177.801 42.9922 186.67V223.95C42.9922 232.82 50.1825 240.01 59.0522 240.01H184.092C192.962 240.01 200.152 232.82 200.152 223.95V186.67C200.152 177.801 192.962 170.61 184.092 170.61Z" fill="#0072FF"/>
<path d="M61.319 213.38V220.65H53.7891V213.38H61.319Z" fill="white"/>
<path d="M90.2616 213.399C89.0067 215.671 87.116 217.527 84.8215 218.739C82.237 220.061 79.3637 220.718 76.4615 220.649H65.1016V190.579H76.4615C79.3657 190.509 82.2429 191.151 84.8416 192.449C87.129 193.637 89.0146 195.474 90.2616 197.729C91.5545 200.13 92.2056 202.824 92.1516 205.549C92.2031 208.285 91.5523 210.987 90.2616 213.399ZM82.4415 211.889C83.2544 211.055 83.8843 210.06 84.2906 208.968C84.697 207.877 84.8711 206.712 84.8016 205.549C84.8716 204.388 84.6977 203.225 84.2913 202.135C83.8848 201.044 83.2547 200.051 82.4415 199.219C80.6196 197.622 78.24 196.809 75.8215 196.959H72.3816V214.139H75.8215C78.238 214.288 80.6159 213.479 82.4415 211.889Z" fill="white"/>
<path d="M118.29 192.091C120.578 193.39 122.469 195.288 123.76 197.58C125.114 200.002 125.804 202.737 125.76 205.51C125.811 208.291 125.121 211.035 123.76 213.46C122.472 215.764 120.576 217.669 118.28 218.97C115.943 220.305 113.292 220.996 110.6 220.97C107.908 220.996 105.258 220.305 102.92 218.97C100.624 217.669 98.7287 215.764 97.4402 213.46C96.0799 211.035 95.3896 208.291 95.4402 205.51C95.3884 202.736 96.0788 199.998 97.4402 197.58C98.7352 195.287 100.63 193.39 102.92 192.091C105.258 190.756 107.908 190.065 110.6 190.091C113.295 190.067 115.948 190.757 118.29 192.091ZM104.89 199.19C103.415 200.955 102.665 203.214 102.79 205.51C102.664 207.798 103.415 210.048 104.89 211.8C105.609 212.581 106.49 213.196 107.471 213.6C108.452 214.004 109.51 214.188 110.57 214.14C111.627 214.184 112.681 213.998 113.658 213.594C114.635 213.19 115.513 212.578 116.23 211.8C117.713 210.05 118.471 207.801 118.35 205.51C118.47 203.224 117.72 200.976 116.25 199.22C115.532 198.439 114.651 197.824 113.67 197.42C112.689 197.016 111.63 196.831 110.57 196.88C109.513 196.832 108.457 197.013 107.477 197.412C106.496 197.811 105.614 198.418 104.89 199.19Z" fill="white"/>
<path d="M153.081 193.3C155.617 195.363 157.342 198.257 157.951 201.47H150.251C149.731 200.138 148.821 198.995 147.641 198.19C146.396 197.379 144.935 196.965 143.451 197C142.47 196.968 141.496 197.163 140.603 197.569C139.71 197.975 138.922 198.581 138.301 199.34C136.909 201.121 136.2 203.342 136.301 205.6C136.199 207.849 136.909 210.06 138.301 211.83C138.927 212.581 139.716 213.18 140.609 213.58C141.501 213.98 142.473 214.172 143.451 214.14C144.936 214.179 146.398 213.764 147.641 212.95C148.815 212.159 149.724 211.034 150.251 209.72H157.951C157.332 212.923 155.608 215.807 153.081 217.87C150.361 219.947 147 221.008 143.581 220.87C140.886 220.927 138.227 220.256 135.881 218.93C133.685 217.654 131.904 215.772 130.751 213.51C129.508 211.029 128.887 208.284 128.941 205.51C128.887 202.736 129.509 199.991 130.751 197.51C131.904 195.248 133.685 193.366 135.881 192.09C138.227 190.763 140.886 190.093 143.581 190.15C147.018 190.059 150.379 191.173 153.081 193.3Z" fill="white"/>
<path d="M180.281 220.65L173.941 211.29L168.501 220.65H160.161L169.781 205.17L159.871 190.58H168.501L174.671 199.64L179.981 190.58H188.281L178.791 205.72L188.911 220.65H180.281Z" fill="white"/>
</svg>
