<svg width="124" height="32" viewBox="0 0 124 32" fill="none" xmlns="http://www.w3.org/2000/svg">
<path d="M37.6396 22.7088V9.86706H39.6641V11.4714H40.0334C40.2821 11.0171 40.6798 10.5982 41.241 10.2078C41.8021 9.82448 42.5906 9.63281 43.6064 9.63281C44.6221 9.63281 45.4177 9.85287 46.0357 10.2859C46.6607 10.726 47.1082 11.2584 47.3924 11.8902H47.7617C48.0601 11.2584 48.5076 10.726 49.1114 10.2859C49.7151 9.84577 50.5604 9.63281 51.6472 9.63281C52.5067 9.63281 53.2596 9.81028 53.906 10.1581C54.5524 10.506 55.0638 11.01 55.4403 11.6702C55.8168 12.3232 56.0015 13.1112 56.0015 14.0199V22.7159H53.9273V14.2044C53.9273 13.3455 53.6787 12.6711 53.1815 12.1671C52.6843 11.6631 51.9882 11.4217 51.0931 11.4217C50.1484 11.4217 49.3742 11.727 48.7704 12.3374C48.1666 12.9479 47.8612 13.8353 47.8612 14.9924V22.7159H45.787V14.2044C45.787 13.3455 45.5384 12.6711 45.0412 12.1671C44.544 11.6702 43.8479 11.4217 42.9529 11.4217C42.0081 11.4217 41.2339 11.727 40.6301 12.3374C40.0263 12.9479 39.7209 13.8353 39.7209 14.9924V22.7159H37.6468L37.6396 22.7088Z" fill="black"/>
<path d="M64.9658 23.0787C63.8435 23.0787 62.8278 22.8161 61.9043 22.2908C60.988 21.7655 60.2493 21.0059 59.7095 20.005C59.1696 19.004 58.8926 17.8256 58.8926 16.4627V16.1219C58.8926 14.7377 59.1625 13.5593 59.7095 12.5796C60.2493 11.6 60.988 10.8404 61.9186 10.308C62.8491 9.77562 63.8648 9.50586 64.9658 9.50586C66.2941 9.50586 67.3312 9.76142 68.0699 10.2654C68.8087 10.7765 69.3485 11.3515 69.6966 11.9975H70.0659V9.86789H72.0904V20.1611C72.0904 20.6864 72.3319 20.9491 72.8291 20.9491H74.0082V22.7096H72.0406C71.4653 22.7096 70.9965 22.5392 70.6484 22.1985C70.3003 21.8577 70.1228 21.3821 70.1228 20.7645V20.4735H69.7818C69.4338 21.155 68.8868 21.7584 68.141 22.2837C67.3951 22.809 66.3439 23.0716 64.9729 23.0716L64.9658 23.0787ZM65.5199 21.2401C66.8482 21.2401 67.935 20.8142 68.7661 19.9695C69.5971 19.1176 70.0162 17.9321 70.0162 16.413V16.1787C70.0162 14.6525 69.5971 13.467 68.7661 12.6222C67.935 11.7704 66.8482 11.3515 65.5199 11.3515C64.1916 11.3515 63.1261 11.7775 62.2737 12.6222C61.4213 13.4741 61.0022 14.6596 61.0022 16.1787V16.413C61.0022 17.9392 61.4284 19.1247 62.2737 19.9695C63.1261 20.8213 64.2058 21.2401 65.5199 21.2401Z" fill="black"/>
<path d="M77.6093 27.9632V26.1246H84.9683C85.4797 26.1246 85.7283 25.862 85.7283 25.3367V20.6586H85.359C85.1814 21.0277 84.9185 21.3898 84.5563 21.7518C84.194 22.1138 83.7252 22.3978 83.1499 22.6178C82.5745 22.8379 81.8429 22.9444 80.9692 22.9444C80.0386 22.9444 79.1862 22.7456 78.4049 22.341C77.6235 21.9364 77.0127 21.3401 76.5652 20.5521C76.1177 19.7641 75.8975 18.7987 75.8975 17.6629V9.86133H77.9716V17.5067C77.9716 18.7703 78.2912 19.6861 78.9305 20.2611C79.5698 20.8361 80.4293 21.1271 81.5161 21.1271C82.745 21.1271 83.7536 20.7225 84.5421 19.9203C85.3305 19.1181 85.7212 17.9185 85.7212 16.3212V9.86133H87.7954V25.6987C87.7954 26.4015 87.5965 26.9481 87.2058 27.3527C86.8151 27.7574 86.2397 27.9561 85.4868 27.9561H77.6022L77.6093 27.9632Z" fill="black"/>
<path d="M96.8662 23.0787C95.7439 23.0787 94.7282 22.8161 93.8047 22.2908C92.8884 21.7655 92.1497 21.0059 91.6098 20.005C91.07 19.004 90.793 17.8256 90.793 16.4627V16.1219C90.793 14.7377 91.0629 13.5593 91.6098 12.5796C92.1497 11.6 92.8884 10.8404 93.8189 10.308C94.7495 9.77562 95.7652 9.50586 96.8662 9.50586C98.1945 9.50586 99.2316 9.76142 99.9703 10.2654C100.709 10.7765 101.249 11.3515 101.597 11.9975H101.966V9.86789H103.991V20.1611C103.991 20.6864 104.232 20.9491 104.729 20.9491H105.909V22.7096H103.941C103.366 22.7096 102.897 22.5392 102.549 22.1985C102.201 21.8577 102.023 21.3821 102.023 20.7645V20.4735H101.682C101.334 21.155 100.787 21.7584 100.041 22.2837C99.2955 22.809 98.2442 23.0716 96.8733 23.0716L96.8662 23.0787ZM97.4203 21.2401C98.7486 21.2401 99.8354 20.8142 100.666 19.9695C101.498 19.1176 101.917 17.9321 101.917 16.413V16.1787C101.917 14.6525 101.498 13.467 100.666 12.6222C99.8354 11.7704 98.7486 11.3515 97.4203 11.3515C96.092 11.3515 95.0265 11.7775 94.1741 12.6222C93.3217 13.4741 92.9026 14.6596 92.9026 16.1787V16.413C92.9026 17.9392 93.3288 19.1247 94.1741 19.9695C95.0265 20.8213 96.1062 21.2401 97.4203 21.2401Z" fill="black"/>
<path d="M108.85 22.7088V9.86706H110.874V12.0464H111.243C111.52 11.4359 112.003 10.8751 112.678 10.3782C113.353 9.88126 114.347 9.63281 115.662 9.63281C116.628 9.63281 117.487 9.83157 118.247 10.2362C119.007 10.6408 119.618 11.2371 120.073 12.0251C120.527 12.8131 120.755 13.7856 120.755 14.9427V22.7159H118.68V15.0989C118.68 13.8211 118.361 12.8912 117.722 12.3162C117.082 11.7412 116.216 11.4501 115.136 11.4501C113.893 11.4501 112.877 11.8547 112.103 12.6569C111.322 13.4662 110.931 14.6587 110.931 16.256V22.7159H108.857L108.85 22.7088Z" fill="black"/>
<path d="M27.3088 4.0957H2.27539V9.46H27.3088V4.0957Z" fill="black"/>
<path d="M8.23633 25.4122V11.1074H2.276L2.276 25.4122H8.23633Z" fill="black"/>
<path d="M17.751 25.4882V14.1094H11.834V25.4882H17.751Z" fill="black"/>
<path d="M27.3096 25.4122V11.1074H21.3492V25.4122H27.3096Z" fill="black"/>
</svg>
