<svg width="201" height="241" viewBox="0 0 201 241" fill="none" xmlns="http://www.w3.org/2000/svg">
<g opacity="0.3">
<path opacity="0.3" d="M140.24 49.25C134.772 49.2421 129.531 47.0657 125.665 43.1982C121.799 39.3308 119.626 34.0881 119.62 28.62V0H27.4803C20.3433 0 13.4987 2.83511 8.45209 7.88171C3.40548 12.9283 0.570312 19.7731 0.570312 26.91V189.13C0.580911 196.26 3.42073 203.094 8.46619 208.132C13.5116 213.17 20.3502 216 27.4803 216H138.09C145.22 216 152.059 213.17 157.104 208.132C162.15 203.094 164.99 196.26 165 189.13V49.25H140.24Z" fill="#FF3E4C"/>
</g>
<path d="M165.001 49.25H140.241C134.773 49.2421 129.531 47.0657 125.666 43.1982C121.8 39.3308 119.626 34.0881 119.621 28.62V0L165.001 49.25Z" fill="#FF3E4C"/>
<path d="M184.51 170.61H59.4702C50.6005 170.61 43.4102 177.801 43.4102 186.67V223.95C43.4102 232.82 50.6005 240.01 59.4702 240.01H184.51C193.38 240.01 200.57 232.82 200.57 223.95V186.67C200.57 177.801 193.38 170.61 184.51 170.61Z" fill="#FF3E4C"/>
<path d="M92.9206 213.38V220.65H85.3906V213.38H92.9206Z" fill="white"/>
<path d="M104.228 214.78H117.498V220.65H96.1484V215.12L109.208 196.41H96.3184V190.58H117.418V196.11L104.228 214.78Z" fill="white"/>
<path d="M129.24 190.58V220.65H122V190.58H129.24Z" fill="white"/>
<path d="M141.532 210.1V220.65H134.262V190.58H146.002C149.572 190.58 152.302 191.46 154.172 193.24C155.118 194.168 155.858 195.286 156.343 196.52C156.827 197.754 157.045 199.076 156.982 200.4C157.013 202.149 156.578 203.875 155.722 205.4C154.849 206.892 153.555 208.092 152.002 208.85C150.127 209.731 148.072 210.16 146.002 210.1H141.532ZM149.612 200.4C149.612 197.767 148.152 196.433 145.232 196.4H141.532V204.22H145.232C148.152 204.253 149.612 202.98 149.612 200.4Z" fill="white"/>
<path d="M82.7698 152.52C79.4068 152.514 76.1831 151.175 73.806 148.796C71.4289 146.417 70.0925 143.193 70.0898 139.83V127.14H95.4598V139.83C95.4572 143.194 94.1193 146.421 91.7401 148.8C89.3608 151.179 86.1346 152.517 82.7698 152.52ZM76.5798 133.63V139.83C76.5798 141.472 77.2316 143.048 78.3922 144.21C79.5528 145.373 81.1272 146.027 82.7698 146.03C84.4134 146.027 85.9888 145.373 87.1509 144.211C88.3131 143.049 88.9671 141.473 88.9698 139.83V133.63H76.5798Z" fill="#FF3E4C"/>
<path d="M70.0808 127.15H82.8008V114.43H70.0808V127.15Z" fill="#FF3E4C"/>
<path d="M82.7722 114.44H95.4922V101.72H82.7722V114.44Z" fill="#FF3E4C"/>
<path d="M70.0808 101.73H82.8008V89.0105H70.0808V101.73Z" fill="#FF3E4C"/>
<path d="M82.7722 89.0195H95.4922V76.2996H82.7722V89.0195Z" fill="#FF3E4C"/>
</svg>
