<svg width="77" height="76" viewBox="0 0 77 76" fill="none"
	xmlns="http://www.w3.org/2000/svg">
	<g clip-path="url(#clip0_12655_132230)">
		<path d="M76.0246 33.7471H28.1689V74.9542H76.0246V33.7471Z" fill="#007C5B"/>
		<path d="M76.0246 71.5332H28.1689V75.1153H76.0246V71.5332Z" fill="#1F2739"/>
		<path d="M64.8449 33.7471H55.2178V71.5337H64.8449V33.7471Z" fill="url(#paint0_linear_12655_132230)"/>
		<path d="M76.0232 33.7471H61.4551V71.5337H76.0232V33.7471Z" fill="url(#paint1_linear_12655_132230)"/>
		<path d="M52.2108 0C42.4817 0 34.5864 8.34915 34.5864 18.6374V33.7467H40.4442V18.6374C40.4442 11.7696 45.7162 6.19453 52.2108 6.19453C58.7053 6.19453 63.9773 11.7696 63.9773 18.6374V33.7467H69.8351V18.6374C69.8351 8.34915 61.9398 0 52.2108 0Z" fill="#007C5B"/>
		<path d="M57.3043 50.3102C57.3043 47.6439 55.2668 45.4893 52.7454 45.4893C50.224 45.4893 48.1865 47.6439 48.1865 50.3102C48.1865 51.8993 48.9251 53.3267 50.0712 54.1885L49.409 61.9452H56.311L55.6234 54.0539C56.6676 53.1651 57.3043 51.8185 57.3043 50.3102Z" fill="white"/>
		<path d="M36.8525 66.5503H11.5367C6.51932 66.5503 2.44434 62.241 2.44434 56.9353C2.44434 51.6295 6.51932 47.3203 11.5367 47.3203H36.878C41.8953 47.3203 45.9703 51.6295 45.9703 56.9353C45.9448 62.241 41.8698 66.5503 36.8525 66.5503Z" fill="#E6E6E6"/>
		<path d="M34.4087 64.7192H9.09281C4.07548 64.7192 0.000488281 60.41 0.000488281 55.1042C0.000488281 49.7985 4.07548 45.4893 9.09281 45.4893H34.4341C39.4515 45.4893 43.5265 49.7985 43.5265 55.1042C43.501 60.41 39.426 64.7192 34.4087 64.7192Z" fill="white"/>
		<path d="M10.3397 52.7884L8.68419 55.0777V55.1046L11.3075 54.7276V55.9665L8.68419 55.6433V55.6702L10.3397 57.8787L9.2445 58.5251L8.20029 55.9665H8.17482L7.05419 58.552L6.06092 57.9056L7.71638 55.6702V55.6433L5.14404 55.9934V54.7545L7.69091 55.1046V55.0777L6.06092 52.8423L7.10513 52.1959L8.17482 54.7276H8.20029L9.2445 52.1689L10.3397 52.7884Z" fill="#1F2739"/>
		<path d="M19.9671 52.7884L18.3116 55.0777V55.1046L20.9349 54.7276V55.9665L18.3116 55.6433V55.6702L19.9671 57.8787L18.8719 58.5251L17.8277 55.9665H17.8023L16.6816 58.552L15.6884 57.9056L17.3438 55.6702V55.6433L14.7715 55.9934V54.7545L17.3184 55.1046V55.0777L15.6884 52.8423L16.7326 52.1959L17.8023 54.7276H17.8277L18.8719 52.1689L19.9671 52.7884Z" fill="#1F2739"/>
		<path d="M28.805 52.7884L27.1495 55.0777V55.1046L29.7728 54.7276V55.9665L27.1495 55.6433V55.6702L28.805 57.8787L27.7098 58.5251L26.6656 55.9665H26.6402L25.5195 58.552L24.5262 57.9056L26.1817 55.6702V55.6433L23.6094 55.9934V54.7545L26.1562 55.1046V55.0777L24.5262 52.8423L25.5705 52.1959L26.6402 54.7276H26.6656L27.7098 52.1689L28.805 52.7884Z" fill="#1F2739"/>
		<path d="M37.514 52.7884L35.8585 55.0777V55.1046L38.4818 54.7276V55.9665L35.8585 55.6433V55.6702L37.514 57.8787L36.4188 58.5251L35.3746 55.9665H35.3491L34.2285 58.552L33.2352 57.9056L34.8907 55.6702V55.6433L32.3184 55.9934V54.7545L34.8652 55.1046V55.0777L33.2352 52.8423L34.2794 52.1959L35.3491 54.7276H35.3746L36.4188 52.1689L37.514 52.7884Z" fill="#1F2739"/>
	</g>
	<defs>
		<linearGradient id="paint0_linear_12655_132230" x1="58.2975" y1="46.3426" x2="70.8834" y2="47.0408" gradientUnits="userSpaceOnUse">
			<stop stop-color="#008D6C"/>
			<stop offset="1" stop-color="#11FFC7"/>
		</linearGradient>
		<linearGradient id="paint1_linear_12655_132230" x1="66.1154" y1="46.3426" x2="85.0856" y2="47.935" gradientUnits="userSpaceOnUse">
			<stop stop-color="#008D6C"/>
			<stop offset="1" stop-color="#11FFC7"/>
		</linearGradient>
		<clipPath id="clip0_12655_132230">
			<rect width="76.024" height="75.1154" fill="white"/>
		</clipPath>
	</defs>
</svg>
