<svg width="101" height="29" viewBox="0 0 101 29" fill="none"
	xmlns="http://www.w3.org/2000/svg">
	<mask id="mask0_8687_41894" style="mask-type:luminance" maskUnits="userSpaceOnUse" x="0" y="0" width="101" height="29">
		<path d="M100.77 0.165161H0.769531V28.8347H100.77V0.165161Z" fill="white"/>
	</mask>
	<g mask="url(#mask0_8687_41894)">
		<path d="M25.7186 17.488C26.2273 16.622 27.491 16.622 27.9947 17.488L33.4016 26.7239C33.9104 27.5912 33.2729 28.6693 32.2604 28.6693H21.4478C20.4353 28.6693 19.8041 27.5899 20.3078 26.7239L25.7148 17.488H25.7198H25.7186Z" fill="#FF394A"/>
		<path d="M22.4527 11.3377C22.9451 10.4767 22.9451 9.41375 22.4527 8.54773L18.0204 0.815408C17.523 -0.0506113 16.282 -0.0506113 15.7834 0.815408L0.944851 26.719C0.447458 27.585 1.06731 28.6707 2.06336 28.6707H10.9255C11.9153 28.6707 12.8267 28.1392 13.3191 27.2783L22.4489 11.3377H22.454H22.4527Z" fill="#FF394A"/>
		<path d="M47.8105 16.7382C50.9956 16.7382 53.3513 18.9777 53.3513 22.7864C53.3513 26.5952 50.9741 28.8347 47.7423 28.8347C45.9648 28.8347 44.6948 28.0962 43.9563 27.0572L43.6799 28.6958H41.5098V12.5369H44.003V18.6078C44.7883 17.5689 45.9888 16.7382 47.8118 16.7382H47.8105ZM47.3724 26.734C49.4264 26.734 50.7885 25.1181 50.7885 22.7864C50.7885 20.4548 49.4264 18.8616 47.3724 18.8616C45.3185 18.8616 43.9791 20.4775 43.9791 22.7625C43.9791 25.0474 45.3185 26.7328 47.3724 26.7328V26.734Z" fill="#FF394A"/>
		<path d="M63.6862 22.9482V16.8772H66.1795V28.696H63.9866L63.7102 27.2189C62.9944 28.0963 61.886 28.8348 60.1552 28.8348C57.7314 28.8348 55.584 27.5421 55.584 23.6173V16.8772H58.1V23.3635C58.1 25.4642 58.9774 26.618 60.7321 26.618C62.4869 26.618 63.6875 25.2786 63.6875 22.9482H63.6862Z" fill="#FF394A"/>
		<path d="M73.1185 15.0528C72.1956 15.0528 71.4559 14.3597 71.4559 13.3902C71.4559 12.4207 72.1944 11.7516 73.1185 11.7516C74.0425 11.7516 74.8038 12.4447 74.8038 13.3902C74.8038 14.3357 74.0653 15.0528 73.1185 15.0528ZM74.3872 26.5029H77.7578V28.6957H68.4551V26.5029H71.8712V19.0698H68.4551V16.877H74.3872V26.5029Z" fill="#FF394A"/>
		<path d="M98.276 18.4462V12.5369H100.769V28.6958H98.5991L98.2987 26.9183C97.5375 27.9573 96.3129 28.8347 94.49 28.8347C91.2809 28.8347 88.9492 26.5724 88.9492 22.7864C88.9492 19.0005 91.3264 16.7382 94.5127 16.7382C96.2902 16.7382 97.5135 17.454 98.2747 18.4462H98.276ZM94.9066 26.734C96.9605 26.734 98.3 25.1181 98.3 22.8332C98.3 20.5482 96.9605 18.8628 94.9066 18.8628C92.8526 18.8628 91.4905 20.4787 91.4905 22.7877C91.4905 25.0967 92.8526 26.7353 94.9066 26.7353V26.734Z" fill="#FF394A"/>
		<path d="M88.3892 26.4664V28.6466H78.834V26.4664H82.3839V14.9039L78.834 16.0779V13.8864L81.8701 12.7238H84.8671V26.4714H88.3956L88.3905 26.4664H88.3892Z" fill="#FF394A"/>
	</g>
</svg>
