<svg width="69" height="53" viewBox="0 0 69 53" fill="none"
	xmlns="http://www.w3.org/2000/svg">
	<g clip-path="url(#clip0_12655_132250)">
		<path d="M68.0787 12.4512V50.6763C68.0787 51.6558 67.3211 52.4613 66.3997 52.4613H36.5054L57.9023 24.4455L65.3554 20.0048L67.3415 12.4512H68.0787Z" fill="#007C5B"/>
		<path d="M67.343 12.4512L65.3569 20.0048L57.9038 24.4455L34.0293 38.6819L4.36024 19.5041L0.879395 12.4512H67.343Z" fill="#007C5B"/>
		<path d="M67.4852 11.9072L67.3419 12.4514H67.0757L67.4852 11.9072Z" fill="#FCA34A"/>
		<path d="M57.9039 24.4455L36.5069 52.4613H1.67802C0.756619 52.4613 -0.000976562 51.6558 -0.000976562 50.6763V12.4512H0.879472L4.33984 19.5041L34.0294 38.6819L57.9039 24.4455Z" fill="url(#paint0_linear_12655_132250)"/>
		<path d="M34.11 0V28.647C31.8781 28.647 29.7896 26.9274 28.0697 24.7941C24.9574 20.9193 23.3193 15.9344 23.3193 10.8406V0H34.11Z" fill="#007C5B"/>
		<path d="M45.4933 0V9.96987C45.4933 15.1072 43.8553 20.1139 40.7839 24.0757C38.8797 26.5355 36.5455 28.6253 34.1294 28.6253V0H45.4933Z" fill="url(#paint1_linear_12655_132250)"/>
		<path d="M31.368 17.4361H37.1626C37.7155 17.4361 38.1659 16.9572 38.1659 16.3694V12.4729C38.1659 11.8852 37.7155 11.4062 37.1626 11.4062H31.368C30.8152 11.4062 30.3647 11.8852 30.3647 12.4729V16.3694C30.3647 16.9572 30.8152 17.4361 31.368 17.4361Z" fill="white"/>
		<path d="M34.2547 15.455C32.4733 15.455 31.0195 13.9094 31.0195 12.0156V9.99114C31.0195 8.09731 32.4733 6.55176 34.2547 6.55176C36.036 6.55176 37.4898 8.09731 37.4898 9.99114V12.0156C37.4693 13.9094 36.036 15.455 34.2547 15.455ZM34.2547 7.40072C32.9033 7.40072 31.8181 8.55444 31.8181 9.99114V12.0156C31.8181 13.4523 32.9033 14.606 34.2547 14.606C35.6061 14.606 36.6913 13.4523 36.6913 12.0156V9.99114C36.6708 8.57621 35.5856 7.40072 34.2547 7.40072Z" fill="white"/>
	</g>
	<defs>
		<linearGradient id="paint0_linear_12655_132250" x1="18.5227" y1="25.7879" x2="87.5978" y2="47.554" gradientUnits="userSpaceOnUse">
			<stop stop-color="#008D6C"/>
			<stop offset="1" stop-color="#11FFC7"/>
		</linearGradient>
		<linearGradient id="paint1_linear_12655_132250" x1="37.7647" y1="9.54176" x2="52.5563" y2="10.8203" gradientUnits="userSpaceOnUse">
			<stop stop-color="#008D6C"/>
			<stop offset="1" stop-color="#11FFC7"/>
		</linearGradient>
		<clipPath id="clip0_12655_132250">
			<rect width="68.0812" height="52.4615" fill="white"/>
		</clipPath>
	</defs>
</svg>
