<svg width="864" height="216" viewBox="0 0 864 216" fill="none" xmlns="http://www.w3.org/2000/svg">
<g clip-path="url(#clip0_7243_45971)">
<rect width="864" height="216" rx="16" fill="url(#paint0_linear_7243_45971)"/>
<g opacity="0.2" clip-path="url(#clip1_7243_45971)">
<path d="M780.129 231.866C760.116 231.866 740.179 229.829 720.77 225.905C701.891 222.057 683.237 216.246 665.49 208.776C648.045 201.381 631.204 192.251 615.421 181.611C599.788 171.047 585.137 158.973 571.846 145.693C558.554 132.412 546.396 117.698 535.899 102.153C525.25 86.3823 516.112 69.6305 508.712 52.1996C501.16 34.4669 495.42 15.8286 491.569 -3.03601C487.566 -22.4289 485.603 -42.3499 485.603 -62.3464C485.603 -82.3429 487.642 -102.264 491.569 -121.657C495.42 -140.521 501.235 -159.16 508.712 -176.892C516.112 -194.323 525.25 -211.151 535.899 -226.846C546.471 -242.466 558.554 -257.105 571.846 -270.385C585.137 -283.666 599.864 -295.815 615.421 -306.304C631.204 -316.943 647.97 -326.074 665.49 -333.469C683.237 -341.015 701.891 -346.749 720.77 -350.598C740.179 -354.597 760.116 -356.559 780.129 -356.559C800.142 -356.559 820.079 -354.522 839.487 -350.598C858.367 -346.749 877.02 -340.939 894.768 -333.469C912.213 -326.074 929.053 -316.943 944.762 -306.304C960.394 -295.74 975.045 -283.666 988.336 -270.385C1001.63 -257.105 1013.79 -242.39 1024.28 -226.846C1034.93 -211.075 1044.07 -194.323 1051.47 -176.892C1059.02 -159.16 1064.76 -140.521 1068.61 -121.657C1072.62 -102.264 1074.58 -82.3429 1074.58 -62.3464C1074.58 -42.3499 1072.54 -22.4289 1068.61 -3.03601C1064.76 15.8286 1058.95 34.4669 1051.47 52.1996C1044.07 69.6305 1034.93 86.4578 1024.28 102.153C1013.71 117.773 1001.63 132.412 988.336 145.693C975.045 158.973 960.319 171.122 944.762 181.611C929.053 192.251 912.213 201.381 894.768 208.776C877.02 216.322 858.367 222.057 839.487 225.905C820.079 229.829 800.066 231.866 780.129 231.866ZM780.129 -356.031C618.139 -356.031 486.282 -224.356 486.282 -62.4219C486.282 99.5121 618.064 231.187 780.129 231.187C942.118 231.187 1073.98 99.5121 1073.98 -62.4219C1073.98 -224.356 942.118 -356.031 780.129 -356.031Z" fill="white" fillOpacity="0.5"/>
<path d="M572.828 326.793C550.625 326.793 529.178 322.492 508.938 313.889C489.379 305.589 471.858 293.818 456.754 278.726C441.65 263.634 429.869 246.128 421.562 226.584C413.029 206.361 408.648 184.855 408.648 162.746C408.648 140.561 412.953 119.131 421.562 98.9081C429.869 79.3644 441.65 61.858 456.754 46.7663C471.858 31.6746 489.379 19.9031 508.938 11.6027C529.178 3.07584 550.701 -1.30078 572.828 -1.30078C595.031 -1.30078 616.478 3.00038 636.717 11.6027C656.277 19.9031 673.798 31.6746 688.901 46.7663C704.005 61.858 715.786 79.3644 724.094 98.9081C732.627 119.131 737.007 140.637 737.007 162.746C737.007 184.931 732.703 206.361 724.094 226.584C715.786 246.128 704.005 263.634 688.901 278.726C673.798 293.818 656.277 305.589 636.717 313.889C616.478 322.416 594.955 326.793 572.828 326.793ZM572.828 -0.621636C482.658 -0.621636 409.328 72.6486 409.328 162.746C409.328 252.844 482.658 326.114 572.828 326.114C662.998 326.114 736.328 252.844 736.328 162.746C736.252 72.6486 662.923 -0.621636 572.828 -0.621636Z" fill="white" fillOpacity="0.5"/>
<path d="M411.669 492.424C392.94 492.424 374.815 488.802 357.748 481.558C341.285 474.616 326.483 464.58 313.72 451.903C301.033 439.226 290.989 424.361 284.041 407.911C276.791 390.857 273.166 372.747 273.166 354.033C273.166 335.32 276.791 317.21 284.041 300.156C290.989 283.706 301.033 268.916 313.72 256.164C326.407 243.487 341.285 233.451 357.748 226.509C374.815 219.265 392.94 215.643 411.669 215.643C430.398 215.643 448.522 219.265 465.59 226.509C482.053 233.451 496.855 243.487 509.618 256.164C522.305 268.841 532.349 283.706 539.297 300.156C546.547 317.21 550.172 335.32 550.172 354.033C550.172 372.747 546.547 390.857 539.297 407.911C532.349 424.361 522.305 439.151 509.618 451.903C496.93 464.58 482.053 474.616 465.59 481.558C448.522 488.727 430.398 492.424 411.669 492.424ZM411.669 216.397C335.696 216.397 273.921 278.122 273.921 354.033C273.921 429.945 335.696 491.67 411.669 491.67C487.641 491.67 549.416 429.945 549.416 354.033C549.416 278.122 487.641 216.397 411.669 216.397Z" fill="white" fillOpacity="0.5"/>
<path d="M91.7679 332.302C68.8855 332.302 46.6073 327.849 25.6883 318.945C5.4491 310.419 -12.6756 298.194 -28.2326 282.574C-43.7896 267.03 -56.0238 248.844 -64.633 228.697C-73.5443 207.795 -78 185.61 -78 162.746C-78 139.882 -73.5443 117.622 -64.633 96.7202C-56.0993 76.4973 -43.8652 58.3873 -28.2326 42.8428C-12.6756 27.2984 5.52462 15.0741 25.6883 6.47184C46.6073 -2.35681 68.81 -6.88428 91.7679 -6.88428C114.726 -6.88428 136.929 -2.43226 157.848 6.47184C178.087 14.9986 196.211 27.2229 211.769 42.8428C227.326 58.3873 239.56 76.5728 248.169 96.7202C257.005 117.622 261.536 139.807 261.536 162.746C261.536 185.61 257.08 207.871 248.169 228.773C239.635 248.995 227.401 267.105 211.769 282.65C196.211 298.194 178.011 310.419 157.848 319.021C136.853 327.85 114.65 332.302 91.7679 332.302ZM91.7679 -6.12969C-1.42317 -6.12969 -77.2448 69.5552 -77.2448 162.746C-77.2448 255.938 -1.42317 331.622 91.7679 331.622C184.959 331.622 260.781 255.862 260.781 162.746C260.781 69.6306 184.959 -6.12969 91.7679 -6.12969Z" fill="white" fillOpacity="0.5"/>
<path d="M304.053 197.91C279.283 197.91 254.512 195.42 230.421 190.515C206.935 185.686 183.901 178.593 161.85 169.236C140.176 160.105 119.332 148.786 99.7726 135.581C80.4396 122.527 62.2394 107.511 45.7006 90.9853C29.1619 74.4599 14.1335 56.2744 1.0686 36.957C-12.1473 17.4133 -23.4753 -3.41327 -32.6131 -25.0699C-41.902 -47.1038 -49.0764 -70.1186 -53.9096 -93.5862C-58.8184 -117.657 -61.3105 -142.408 -61.3105 -167.158C-61.3105 -191.909 -58.8184 -216.659 -53.9096 -240.73C-49.0764 -264.198 -41.9775 -287.213 -32.6131 -309.247C-23.4753 -330.903 -12.1473 -351.73 1.0686 -371.273C14.1335 -390.591 29.1619 -408.776 45.7006 -425.302C62.2394 -441.827 80.4396 -456.843 99.7726 -469.898C119.332 -482.877 140.251 -494.195 161.85 -503.326C183.901 -512.607 206.935 -519.776 230.421 -524.605C254.512 -529.51 279.283 -532 304.053 -532C328.823 -532 353.594 -529.51 377.685 -524.605C401.171 -519.776 424.205 -512.683 446.256 -503.326C467.93 -494.195 488.774 -482.877 508.333 -469.671C527.666 -456.617 545.867 -441.601 562.405 -425.075C578.944 -408.55 593.973 -390.364 607.037 -371.047C620.253 -351.503 631.581 -330.677 640.719 -309.02C650.008 -286.986 657.182 -263.971 662.016 -240.504C666.924 -216.433 669.417 -191.682 669.417 -166.932C669.417 -142.181 666.924 -117.431 662.016 -93.3598C657.182 -69.8922 650.084 -46.8774 640.719 -24.8435C631.581 -3.18689 620.253 17.6396 607.037 37.1834C593.973 56.5007 578.944 74.6863 562.405 91.2117C545.867 107.737 527.666 122.753 508.333 135.808C488.774 149.013 467.93 160.332 446.256 169.462C424.205 178.744 401.171 185.912 377.685 190.741C353.594 195.42 328.823 197.91 304.053 197.91ZM304.053 -531.245C103.02 -531.245 -60.4798 -367.878 -60.4798 -167.083C-60.4798 33.7123 103.02 197.155 304.053 197.155C505.086 197.155 668.586 33.7878 668.586 -167.083C668.586 -367.953 505.01 -531.245 304.053 -531.245Z" fill="white" fillOpacity="0.5"/>
<path d="M258.138 199.193C260.641 199.193 262.669 197.166 262.669 194.665C262.669 192.165 260.641 190.138 258.138 190.138C255.636 190.138 253.607 192.165 253.607 194.665C253.607 197.166 255.636 199.193 258.138 199.193Z" fill="white" fillOpacity="0.5"/>
<path d="M541.638 114.226C544.141 114.226 546.169 112.199 546.169 109.699C546.169 107.198 544.141 105.171 541.638 105.171C539.136 105.171 537.107 107.198 537.107 109.699C537.107 112.199 539.136 114.226 541.638 114.226Z" fill="white" fillOpacity="0.5"/>
<path d="M423.647 217.538C424.395 214.374 422.434 211.204 419.268 210.457C416.102 209.71 412.929 211.669 412.182 214.833C411.434 217.996 413.395 221.166 416.561 221.913C419.727 222.66 422.9 220.701 423.647 217.538Z" fill="white" fillOpacity="0.5"/>
<path d="M412.361 187.356C415.366 186.112 416.794 182.669 415.549 179.665C414.304 176.662 410.858 175.236 407.852 176.48C404.846 177.724 403.419 181.167 404.664 184.17C405.909 187.174 409.355 188.6 412.361 187.356Z" fill="white" fillOpacity="0.5"/>
<path d="M499.2 23.01C502.206 21.7659 503.633 18.3229 502.388 15.3196C501.143 12.3164 497.697 10.8902 494.692 12.1342C491.686 13.3783 490.259 16.8213 491.504 19.8246C492.749 22.8278 496.195 24.254 499.2 23.01Z" fill="white" fillOpacity="0.5"/>
<path d="M680.746 46.8415C684.75 46.8415 687.995 43.5983 687.995 39.5975C687.995 35.5967 684.75 32.3535 680.746 32.3535C676.742 32.3535 673.496 35.5967 673.496 39.5975C673.496 43.5983 676.742 46.8415 680.746 46.8415Z" fill="white" fillOpacity="0.5"/>
<path d="M601.676 175.801C604.179 175.801 606.207 173.774 606.207 171.273C606.207 168.773 604.179 166.746 601.676 166.746C599.174 166.746 597.145 168.773 597.145 171.273C597.145 173.774 599.174 175.801 601.676 175.801Z" fill="white" fillOpacity="0.5"/>
<path d="M963.49 682.202C937.436 682.202 911.381 679.561 886.082 674.43C861.387 669.375 837.146 661.829 813.961 652.094C791.23 642.436 769.254 630.589 748.712 616.705C728.397 602.971 709.216 587.2 691.846 569.845C674.477 552.489 658.693 533.323 644.948 513.025C631.053 492.5 619.121 470.541 609.53 447.828C599.712 424.663 592.16 400.44 587.176 375.766C581.965 350.487 579.397 324.454 579.397 298.421C579.397 272.387 582.041 246.354 587.176 221.076C592.236 196.401 599.788 172.178 609.53 149.013C619.196 126.3 631.053 104.341 644.948 83.8166C658.693 63.5182 674.477 44.3518 691.846 26.9963C709.216 9.64089 728.397 -6.12991 748.712 -19.8634C769.254 -33.7477 791.23 -45.6702 813.961 -55.2534C837.146 -65.063 861.387 -72.6089 886.082 -77.5891C911.381 -82.7957 937.436 -85.3613 963.49 -85.3613C989.544 -85.3613 1015.6 -82.7203 1040.9 -77.5891C1065.59 -72.5334 1089.83 -64.9876 1113.02 -55.2534C1135.75 -45.5947 1157.73 -33.7477 1178.27 -19.8634C1198.58 -6.12991 1217.76 9.64089 1235.13 26.9963C1252.5 44.3518 1268.29 63.5182 1282.03 83.8166C1295.93 104.341 1307.86 126.3 1317.45 149.013C1327.27 172.178 1334.82 196.401 1339.8 221.076C1345.01 246.354 1347.58 272.387 1347.58 298.421C1347.58 324.454 1344.94 350.487 1339.8 375.766C1334.74 400.44 1327.19 424.663 1317.45 447.828C1307.78 470.541 1295.93 492.5 1282.03 513.025C1268.29 533.323 1252.5 552.489 1235.13 569.845C1217.76 587.2 1198.58 602.971 1178.27 616.705C1157.73 630.589 1135.75 642.511 1113.02 652.094C1089.83 661.904 1065.59 669.45 1040.9 674.43C1015.67 679.637 989.62 682.202 963.49 682.202ZM963.49 -84.0031C752.488 -84.0031 580.908 87.5141 580.908 298.27C580.908 509.025 752.564 680.542 963.49 680.542C1174.42 680.542 1346.07 509.025 1346.07 298.27C1346.07 87.5141 1174.49 -84.0031 963.49 -84.0031Z" fill="white" fillOpacity="0.5"/>
<path d="M572.828 327.246C550.625 327.246 529.027 322.869 508.712 314.342C489.077 306.042 471.481 294.195 456.377 279.103C441.273 264.011 429.416 246.43 421.109 226.81C412.5 206.512 408.195 185.006 408.195 162.746C408.195 140.486 412.575 118.98 421.109 98.6818C429.416 79.0626 441.273 61.4808 456.377 46.3891C471.481 31.2974 489.077 19.4504 508.712 11.15C529.027 2.5477 550.55 -1.75342 572.828 -1.75342C595.106 -1.75342 616.629 2.62316 636.944 11.15C656.579 19.4504 674.175 31.2974 689.279 46.3891C704.383 61.4808 716.24 79.0626 724.547 98.6818C733.156 118.98 737.461 140.486 737.461 162.746C737.461 185.006 733.08 206.512 724.547 226.81C716.24 246.43 704.383 264.011 689.279 279.103C674.175 294.195 656.579 306.042 636.944 314.342C616.629 322.869 595.031 327.246 572.828 327.246ZM572.828 -0.168808C482.96 -0.168808 409.781 72.875 409.781 162.746C409.781 252.617 482.884 325.661 572.828 325.661C662.696 325.661 735.875 252.617 735.875 162.746C735.875 72.875 662.696 -0.168808 572.828 -0.168808Z" fill="white" fillOpacity="0.5"/>
</g>
<mask id="mask0_7243_45971" style="mask-type:luminance" maskUnits="userSpaceOnUse" x="422" y="39" width="479" height="138">
<path d="M900.792 39.3428H422.387V176.499H900.792V39.3428Z" fill="white"/>
</mask>
<g mask="url(#mask0_7243_45971)">
<path d="M541.744 122.217C544.178 118.074 550.223 118.074 552.633 122.217L578.5 166.402C580.934 170.551 577.884 175.709 573.041 175.709H521.313C516.469 175.709 513.449 170.545 515.859 166.402L541.726 122.217H541.75H541.744Z" fill="#FF394A"/>
<path d="M526.12 92.793C528.476 88.6741 528.476 83.5888 526.12 79.4458L504.916 42.454C502.536 38.3109 496.6 38.3109 494.214 42.454L423.226 166.378C420.846 170.521 423.812 175.715 428.577 175.715H470.974C475.709 175.715 480.069 173.172 482.425 169.053L526.102 92.793H526.127H526.12Z" fill="#FF394A"/>
<path d="M647.435 118.63C662.673 118.63 673.943 129.344 673.943 147.565C673.943 165.786 662.57 176.5 647.109 176.5C638.606 176.5 632.53 172.967 628.997 167.996L627.674 175.835H617.292V98.5303H629.22V127.574C632.977 122.604 638.721 118.63 647.442 118.63H647.435ZM645.34 166.45C655.166 166.45 661.683 158.72 661.683 147.565C661.683 136.41 655.166 128.788 645.34 128.788C635.514 128.788 629.106 136.519 629.106 147.45C629.106 158.381 635.514 166.444 645.34 166.444V166.45Z" fill="#FF394A"/>
<path d="M723.389 148.338V119.294H735.317V175.836H724.827L723.504 168.77C720.08 172.967 714.777 176.5 706.497 176.5C694.901 176.5 684.628 170.316 684.628 151.539V119.294H696.665V150.325C696.665 160.375 700.862 165.895 709.257 165.895C717.652 165.895 723.395 159.487 723.395 148.338H723.389Z" fill="#FF394A"/>
<path d="M768.51 110.566C764.095 110.566 760.556 107.251 760.556 102.612C760.556 97.9744 764.089 94.7734 768.51 94.7734C772.93 94.7734 776.572 98.0891 776.572 102.612C776.572 107.136 773.039 110.566 768.51 110.566ZM774.579 165.344H790.705V175.835H746.2V165.344H762.543V129.784H746.2V119.293H774.579V165.344Z" fill="#FF394A"/>
<path d="M888.864 126.801V98.5303H900.792V175.835H890.41L888.972 167.332C885.331 172.302 879.472 176.5 870.751 176.5C855.399 176.5 844.244 165.677 844.244 147.565C844.244 129.452 855.616 118.63 870.86 118.63C879.364 118.63 885.216 122.054 888.858 126.801H888.864ZM872.744 166.45C882.571 166.45 888.978 158.72 888.978 147.788C888.978 136.857 882.571 128.794 872.744 128.794C862.918 128.794 856.402 136.525 856.402 147.571C856.402 158.617 862.918 166.456 872.744 166.456V166.45Z" fill="#FF394A"/>
<path d="M841.563 165.17V175.6H795.851V165.17H812.834V109.855L795.851 115.471V104.987L810.376 99.4248H824.713V165.194H841.594L841.569 165.17H841.563Z" fill="#FF394A"/>
</g>
</g>
<rect x="0.272727" y="0.272727" width="863.455" height="215.455" rx="15.7273" stroke="url(#paint1_linear_7243_45971)" strokeWidth="0.545455"/>
<defs>
<linearGradient id="paint0_linear_7243_45971" x1="0.000344968" y1="50.8547" x2="432.852" y2="-465.252" gradientUnits="userSpaceOnUse">
<stop stop-color="#0E1319"/>
<stop offset="0.373723" stop-color="#21161C"/>
<stop offset="1" stop-color="#FF394A"/>
</linearGradient>
<linearGradient id="paint1_linear_7243_45971" x1="913.499" y1="107.999" x2="585.774" y2="633.555" gradientUnits="userSpaceOnUse">
<stop stop-color="#0E1319"/>
<stop offset="0.224318" stop-color="#21161C"/>
<stop offset="1" stop-color="#FF394A"/>
</linearGradient>
<clipPath id="clip0_7243_45971">
<rect width="864" height="216" rx="16" fill="white"/>
</clipPath>
<clipPath id="clip1_7243_45971">
<rect width="1758.25" height="1510" fill="white" transform="translate(-78 -532)"/>
</clipPath>
</defs>
</svg>
