<svg width="24" height="25" viewBox="0 0 24 25" fill="none" xmlns="http://www.w3.org/2000/svg">
<path d="M23.2502 10.2502C23.2501 9.67529 23.0848 9.11254 22.7739 8.62892C22.4631 8.1453 22.0199 7.76116 21.497 7.52224C20.9741 7.28331 20.3936 7.19966 19.8245 7.28123C19.2554 7.36281 18.7218 7.60617 18.2871 7.98237C16.7168 7.14799 14.8408 6.64362 12.8815 6.52643L13.368 3.60424L15.0293 3.85924C15.1135 4.38327 15.3804 4.86064 15.7826 5.20697C16.1848 5.5533 16.6965 5.74629 17.2272 5.75183C17.758 5.75737 18.2736 5.57511 18.6829 5.23726C19.0923 4.89941 19.369 4.42772 19.4642 3.90556C19.5594 3.3834 19.467 2.84439 19.2032 2.38381C18.9394 1.92322 18.5213 1.57071 18.0228 1.38857C17.5243 1.20644 16.9774 1.20641 16.4788 1.3885C15.9803 1.57058 15.5621 1.92305 15.2983 2.38362L12.8608 2.00862C12.6658 1.97855 12.4668 2.02654 12.307 2.14218C12.1471 2.25783 12.0392 2.43181 12.0068 2.62643L11.3627 6.51518C9.3152 6.6033 7.34833 7.1133 5.71333 7.98237C5.11624 7.47796 4.34586 7.22651 3.56617 7.28153C2.78649 7.33655 2.05906 7.69369 1.53872 8.27695C1.01838 8.86021 0.746224 9.62352 0.780178 10.4044C0.814132 11.1853 1.15151 11.9221 1.72051 12.458C1.57469 12.9591 1.50052 13.4783 1.5002 14.0002C1.5002 16.0561 2.6252 17.9705 4.67927 19.3899C6.6452 20.7502 9.24489 21.5002 12.0002 21.5002C14.7555 21.5002 17.3552 20.7502 19.3211 19.3899C21.3752 17.9705 22.5002 16.0561 22.5002 14.0002C22.4999 13.4783 22.4257 12.9591 22.2799 12.458C22.5849 12.1766 22.8284 11.8352 22.9954 11.4553C23.1624 11.0754 23.2491 10.6651 23.2502 10.2502ZM17.2502 2.75018C17.3985 2.75018 17.5435 2.79417 17.6669 2.87658C17.7902 2.95899 17.8863 3.07612 17.9431 3.21317C17.9999 3.35021 18.0147 3.50101 17.9858 3.6465C17.9569 3.79198 17.8854 3.92562 17.7805 4.03051C17.6756 4.1354 17.542 4.20683 17.3965 4.23577C17.251 4.26471 17.1002 4.24985 16.9632 4.19309C16.8261 4.13632 16.709 4.04019 16.6266 3.91686C16.5442 3.79352 16.5002 3.64851 16.5002 3.50018C16.5002 3.30127 16.5792 3.1105 16.7199 2.96985C16.8605 2.8292 17.0513 2.75018 17.2502 2.75018ZM21.0124 11.5421C20.8563 11.6346 20.739 11.7805 20.6822 11.9529C20.6255 12.1253 20.6332 12.3124 20.704 12.4796C20.8988 12.9629 20.9993 13.479 21.0002 14.0002C21.0002 15.5499 20.1011 17.0255 18.469 18.1561C16.7505 19.3439 14.4536 20.0002 12.0002 20.0002C9.54677 20.0002 7.24989 19.3439 5.53145 18.1561C3.89926 17.0255 3.0002 15.5499 3.0002 14.0002C3.00146 13.4808 3.10135 12.9664 3.29458 12.4842C3.36545 12.3173 3.37345 12.1304 3.31709 11.958C3.26073 11.7856 3.14382 11.6395 2.98801 11.5467C2.79724 11.433 2.6341 11.2783 2.51038 11.0938C2.38667 10.9094 2.30546 10.6997 2.27263 10.4801C2.2398 10.2604 2.25616 10.0362 2.32054 9.82359C2.38491 9.61102 2.49569 9.41539 2.64488 9.25084C2.79407 9.08629 2.97793 8.95692 3.18321 8.87208C3.38848 8.78724 3.61003 8.74905 3.83185 8.76026C4.05368 8.77147 4.27025 8.8318 4.46593 8.9369C4.6616 9.042 4.83149 9.18924 4.96333 9.36799C5.07214 9.51746 5.23233 9.62148 5.41315 9.66006C5.59397 9.69865 5.78266 9.66909 5.94302 9.57705L5.97677 9.55643C7.63614 8.5533 9.77364 8.00018 12.0002 8.00018C14.2249 8.00018 16.3624 8.5533 18.0218 9.55643L18.0611 9.57987C18.2213 9.67001 18.4089 9.69823 18.5885 9.65917C18.768 9.62011 18.927 9.5165 19.0352 9.36799C19.1662 9.18775 19.3358 9.03897 19.5315 8.93247C19.7273 8.82596 19.9443 8.76441 20.1668 8.75228C20.3893 8.74016 20.6117 8.77776 20.8179 8.86236C21.0241 8.94696 21.2088 9.07643 21.3586 9.24136C21.5085 9.40629 21.6197 9.60254 21.6842 9.81584C21.7487 10.0291 21.7649 10.2541 21.7316 10.4745C21.6982 10.6948 21.6162 10.9049 21.4915 11.0896C21.3668 11.2743 21.2025 11.4288 21.0105 11.5421H21.0124ZM8.2502 14.0002C7.95353 14.0002 7.66352 13.9122 7.41685 13.7474C7.17017 13.5826 6.97791 13.3483 6.86438 13.0742C6.75085 12.8001 6.72115 12.4985 6.77902 12.2075C6.8369 11.9166 6.97976 11.6493 7.18954 11.4395C7.39932 11.2297 7.6666 11.0869 7.95757 11.029C8.24854 10.9711 8.55014 11.0008 8.82423 11.1144C9.09832 11.2279 9.33259 11.4201 9.49741 11.6668C9.66223 11.9135 9.7502 12.2035 9.7502 12.5002C9.7502 12.898 9.59217 13.2795 9.31086 13.5608C9.02956 13.8421 8.64803 14.0002 8.2502 14.0002ZM17.2502 12.5002C17.2502 12.7969 17.1622 13.0869 16.9974 13.3335C16.8326 13.5802 16.5983 13.7725 16.3242 13.886C16.0501 13.9995 15.7485 14.0292 15.4576 13.9714C15.1666 13.9135 14.8993 13.7706 14.6895 13.5608C14.4798 13.3511 14.3369 13.0838 14.279 12.7928C14.2211 12.5018 14.2509 12.2002 14.3644 11.9262C14.4779 11.6521 14.6702 11.4178 14.9168 11.253C15.1635 11.0882 15.4535 11.0002 15.7502 11.0002C16.148 11.0002 16.5296 11.1582 16.8109 11.4395C17.0922 11.7208 17.2502 12.1024 17.2502 12.5002ZM15.663 16.6486C15.7092 16.7356 15.7378 16.8309 15.7472 16.929C15.7565 17.0271 15.7465 17.1261 15.7176 17.2203C15.6887 17.3145 15.6415 17.4021 15.5787 17.478C15.516 17.554 15.4388 17.6169 15.3518 17.663C14.3197 18.2114 13.1689 18.4982 12.0002 18.4982C10.8315 18.4982 9.68066 18.2114 8.64864 17.663C8.5616 17.6168 8.4845 17.554 8.42175 17.478C8.35901 17.402 8.31183 17.3145 8.28293 17.2203C8.25403 17.1261 8.24396 17.0271 8.25331 16.929C8.26265 16.8309 8.29122 16.7357 8.33739 16.6486C8.38356 16.5616 8.44642 16.4845 8.52238 16.4217C8.59834 16.359 8.68592 16.3118 8.78012 16.2829C8.87431 16.254 8.97327 16.2439 9.07136 16.2533C9.16944 16.2626 9.26472 16.2912 9.35177 16.3374C10.1672 16.7709 11.0767 16.9976 12.0002 16.9976C12.9238 16.9976 13.8332 16.7709 14.6486 16.3374C14.7357 16.2912 14.831 16.2626 14.9291 16.2532C15.0271 16.2438 15.1261 16.2539 15.2203 16.2828C15.3145 16.3117 15.4021 16.3589 15.4781 16.4217C15.554 16.4844 15.6169 16.5615 15.663 16.6486Z" fill="#F5F7FA"/>
</svg>
