<svg width="49" height="41" viewBox="0 0 49 41" fill="none"
	xmlns="http://www.w3.org/2000/svg">
	<g clip-path="url(#clip0_8687_41907)">
		<path d="M12.231 40.8072H4.10852C2.40199 40.8072 1.55792 40.8072 1.04517 40.4963C0.490341 40.1554 0.151137 39.5908 0.109065 38.9689C0.077511 38.3944 0.50086 37.6954 1.3423 36.2949L21.3974 2.85629C22.252 1.43596 22.6833 0.727042 23.2276 0.463375C23.814 0.182293 24.5134 0.182293 25.0998 0.463375C25.6441 0.727042 26.0754 1.43596 26.93 2.85629L31.0529 9.66441L31.074 9.69924C31.9942 11.2215 32.4624 11.9951 32.6675 12.8061C32.8936 13.6916 32.8936 14.6244 32.6675 15.5099C32.4624 16.3258 31.9996 17.1043 31.0635 18.6515L20.5298 36.2651L20.5034 36.3099C19.5753 37.8447 19.1045 38.6232 18.4551 39.2103C17.7451 39.8519 16.8932 40.3197 15.9571 40.5808C15.0998 40.8072 14.1453 40.8072 12.231 40.8072Z" stroke="white" strokeWidth="0.30911" stroke-miterlimit="10" />
		<path d="M32.7506 40.8072H44.3887C46.1058 40.8072 46.9683 40.8072 47.4837 40.4864C48.0385 40.1455 48.3882 39.571 48.4198 38.9491C48.4487 38.3945 48.0358 37.7203 47.2286 36.402C47.1997 36.3572 47.1734 36.3125 47.1445 36.2652L41.3149 26.8329L41.2491 26.7258C40.4288 25.4149 40.0159 24.7533 39.4848 24.4971C38.8984 24.216 38.2095 24.216 37.6231 24.4971C37.0893 24.7608 36.6581 25.4498 35.8034 26.8403L29.995 36.2726L29.9739 36.3049C29.1246 37.693 28.6986 38.387 28.7301 38.9566C28.7722 39.5784 29.1114 40.1531 29.6663 40.4938C30.1712 40.8072 31.0336 40.8072 32.7506 40.8072Z" stroke="white" strokeWidth="0.30911" stroke-miterlimit="10" />
		<path d="M14.0123 39.2727H7.13618C5.68996 39.2727 4.97737 39.2727 4.54087 39.009C4.07019 38.7205 3.78359 38.2429 3.7494 37.7156C3.7231 37.2305 4.08071 36.636 4.7933 35.452L21.7746 7.13746C22.4977 5.93604 22.8632 5.33407 23.3234 5.11269C23.8203 4.87389 24.412 4.87389 24.9089 5.11269C25.3691 5.33407 25.7373 5.93604 26.4578 7.13746L29.9497 12.9034L29.9681 12.9332C30.7491 14.2242 31.1434 14.8784 31.3171 15.5648C31.509 16.3137 31.509 17.1047 31.3171 17.8534C31.1434 18.5448 30.7517 19.204 29.9602 20.5125L21.0409 35.4271L21.0172 35.4644C20.2311 36.7654 19.8341 37.4246 19.2818 37.922C18.6823 38.4668 17.9592 38.8598 17.165 39.0837C16.442 39.2727 15.6321 39.2727 14.0123 39.2727Z" stroke="white" strokeWidth="0.30911" stroke-miterlimit="10" />
		<path d="M31.6259 39.2729H41.4813C42.9353 39.2729 43.6664 39.2728 44.1028 39.0017C44.5736 38.7132 44.868 38.2281 44.8943 37.7007C44.9207 37.2306 44.5709 36.661 43.8872 35.5442C43.8636 35.5068 43.8399 35.4671 43.8162 35.4272L38.8807 27.4401L38.8254 27.3506C38.1313 26.2411 37.7816 25.6815 37.332 25.465C36.8349 25.2262 36.2512 25.2262 35.7568 25.465C35.3046 25.6864 34.9391 26.2709 34.216 27.45L29.2962 35.4371L29.2803 35.4646C28.56 36.6411 28.1997 37.2281 28.2259 37.7107C28.2602 38.238 28.5468 38.7231 29.0174 39.0116C29.4408 39.2729 30.1718 39.2729 31.6259 39.2729Z" stroke="white" strokeWidth="0.30911" stroke-miterlimit="10" />
		<path d="M15.8031 37.581H10.1023C8.90327 37.581 8.31163 37.581 7.9514 37.3621C7.56223 37.1232 7.32295 36.7278 7.29402 36.29C7.27298 35.887 7.56748 35.3945 8.15912 34.412L22.2374 10.938C22.837 9.94054 23.1393 9.44306 23.5233 9.25898C23.9335 9.05999 24.4252 9.05999 24.838 9.25898C25.2193 9.44306 25.5243 9.94054 26.1239 10.938L29.0162 15.7164L29.0321 15.7412C29.6789 16.8109 30.0076 17.3531 30.1496 17.9228C30.3073 18.5446 30.3073 19.1989 30.1496 19.8207C30.005 20.3953 29.6815 20.94 29.0241 22.027L21.6275 34.392L21.6089 34.4245C20.9569 35.5014 20.6282 36.0487 20.1706 36.4617C19.6737 36.9118 19.0741 37.2402 18.4168 37.4243C17.8172 37.581 17.1468 37.581 15.8031 37.581Z" stroke="white" strokeWidth="0.30911" stroke-miterlimit="10" />
		<path d="M30.5334 37.5809H38.7033C39.9075 37.5809 40.5149 37.5809 40.8752 37.3571C41.2643 37.1182 41.5088 36.7153 41.5325 36.2775C41.5536 35.887 41.2643 35.4143 40.6964 34.489C40.6779 34.4567 40.6569 34.4244 40.6385 34.3919L36.5471 27.7704L36.4997 27.6959C35.9238 26.7755 35.6346 26.3103 35.2613 26.1312C34.8511 25.9322 34.3672 25.9322 33.9544 26.1312C33.5784 26.3153 33.2759 26.8004 32.6764 27.7753L28.598 34.397L28.585 34.4194C27.9881 35.3944 27.6909 35.8819 27.712 36.28C27.7409 36.7178 27.9802 37.1208 28.3694 37.3595C28.7216 37.5809 29.329 37.5809 30.5334 37.5809Z" stroke="white" strokeWidth="0.30911" stroke-miterlimit="10" />
		<path d="M17.1942 36.4095H12.4927C11.504 36.4095 11.0175 36.4095 10.7204 36.2304C10.3996 36.0339 10.2024 35.708 10.1787 35.3474C10.1603 35.0165 10.4048 34.611 10.8939 33.8002L22.5005 14.4455C22.9948 13.6245 23.2447 13.2116 23.5602 13.0599C23.8994 12.8957 24.3044 12.8957 24.6436 13.0599C24.9591 13.2116 25.2088 13.6221 25.7032 14.4455L28.0882 18.3856L28.1013 18.4054C28.6351 19.2859 28.906 19.7337 29.0243 20.2038C29.1557 20.7162 29.1557 21.256 29.0243 21.7684C28.906 22.241 28.6378 22.6913 28.096 23.5867L21.9956 33.7803L21.9799 33.8051C21.4434 34.6932 21.17 35.1459 20.7939 35.4841C20.3837 35.8548 19.8894 36.1259 19.3477 36.2776C18.8534 36.4095 18.3012 36.4095 17.1942 36.4095Z" stroke="white" strokeWidth="0.30911" stroke-miterlimit="10" />
		<path d="M29.2142 36.4274H35.9483C36.9423 36.4274 37.4419 36.4274 37.739 36.2409C38.0598 36.0444 38.2623 35.711 38.2806 35.3504C38.2965 35.0295 38.0598 34.6389 37.5917 33.8753C37.576 33.8505 37.5601 33.8231 37.5418 33.7957L34.1682 28.3358L34.1288 28.2736C33.6555 27.5149 33.4161 27.1319 33.1085 26.9851C32.7693 26.8209 32.3696 26.8209 32.0304 26.9851C31.7201 27.1368 31.4702 27.5373 30.976 28.3408L27.6128 33.8007L27.6023 33.8206C27.1106 34.624 26.8634 35.0269 26.8818 35.3553C26.9055 35.716 27.1028 36.0468 27.4235 36.2459C27.7206 36.4274 28.2203 36.4274 29.2142 36.4274Z" stroke="white" strokeWidth="0.30911" stroke-miterlimit="10" />
		<path d="M18.4516 35.2626H14.581C13.7686 35.2626 13.3662 35.2626 13.1217 35.1135C12.8561 34.9517 12.6957 34.6831 12.6747 34.3847C12.6589 34.111 12.8614 33.7777 13.2637 33.111L22.8192 17.1791C23.2269 16.5024 23.432 16.1641 23.6922 16.0397C23.971 15.9054 24.305 15.9054 24.5836 16.0397C24.844 16.1641 25.0491 16.5024 25.4566 17.1791L27.4209 20.4226L27.4314 20.44C27.8705 21.1663 28.0941 21.5346 28.1913 21.92C28.2992 22.3429 28.2992 22.7857 28.1913 23.2086C28.0941 23.5965 27.8731 23.9697 27.4262 24.706L22.4064 33.0987L22.3933 33.1211C21.9516 33.8523 21.728 34.2229 21.4178 34.504C21.0786 34.81 20.6736 35.0314 20.2266 35.1583C19.819 35.2626 19.3642 35.2626 18.4516 35.2626Z" stroke="white" strokeWidth="0.30911" stroke-miterlimit="10" />
		<path d="M28.4957 35.2628H34.0413C34.859 35.2628 35.2719 35.2628 35.5164 35.111C35.7819 34.9494 35.9476 34.6757 35.9635 34.3798C35.9765 34.116 35.7819 33.7952 35.3955 33.1658C35.3823 33.1435 35.3691 33.1236 35.356 33.1012L32.5793 28.6063L32.5477 28.5567C32.1585 27.9322 31.9613 27.6164 31.7063 27.4945C31.4275 27.3602 31.0988 27.3602 30.8201 27.4945C30.565 27.6188 30.3599 27.9497 29.9524 28.6114L27.1835 33.1036L27.173 33.1186C26.7681 33.7802 26.5657 34.1111 26.5787 34.3822C26.5972 34.6782 26.7602 34.9518 27.0258 35.1135C27.2651 35.2628 27.6778 35.2628 28.4957 35.2628Z" stroke="white" strokeWidth="0.30911" stroke-miterlimit="10" />
		<path d="M19.733 34.1021H16.7011C16.0648 34.1021 15.7492 34.1021 15.5573 33.9852C15.3495 33.8584 15.2234 33.647 15.2075 33.4156C15.197 33.2016 15.3522 32.9405 15.6677 32.4181L23.1513 19.9386C23.4695 19.4088 23.6298 19.1426 23.8349 19.0457C24.0532 18.9412 24.3135 18.9412 24.5344 19.0457C24.7368 19.1426 24.8999 19.4088 25.2181 19.9386L26.7563 22.4783L26.7642 22.4907C27.1087 23.0603 27.2822 23.3465 27.3584 23.65C27.4426 23.9807 27.4426 24.329 27.3584 24.6598C27.2822 24.9658 27.1087 25.2543 26.759 25.8314L22.8278 32.4058L22.8173 32.4231C22.4702 32.9952 22.2967 33.2863 22.0522 33.5051C21.7866 33.7439 21.4684 33.918 21.1187 34.0176C20.8031 34.1021 20.4481 34.1021 19.733 34.1021Z" stroke="white" strokeWidth="0.30911" stroke-miterlimit="10" />
		<path d="M27.7603 34.1185H32.1042C32.7457 34.1185 33.0666 34.1185 33.2586 33.999C33.4662 33.8722 33.5952 33.6583 33.6083 33.4245C33.6187 33.218 33.4662 32.9668 33.1639 32.4743C33.1534 32.4568 33.1429 32.4395 33.1324 32.422L30.9578 28.9023L30.9341 28.8625C30.6291 28.3725 30.474 28.1262 30.2767 28.0318C30.0584 27.9272 29.8007 27.9272 29.5825 28.0318C29.3827 28.1287 29.2223 28.3874 28.9042 28.9072L26.7373 32.427L26.7295 32.4395C26.4113 32.9569 26.2536 33.2154 26.2642 33.4294C26.2799 33.6608 26.4061 33.8747 26.6138 34.004C26.7979 34.1185 27.1213 34.1185 27.7603 34.1185Z" stroke="white" strokeWidth="0.30911" stroke-miterlimit="10" />
		<path d="M21.0546 32.8502H18.8695C18.4094 32.8502 18.1832 32.8502 18.0438 32.7657C17.8939 32.6736 17.8019 32.522 17.7914 32.3552C17.7835 32.201 17.8966 32.012 18.1228 31.6364L23.5185 22.6393C23.7472 22.2562 23.8656 22.0671 24.0102 21.9951C24.1679 21.918 24.3573 21.918 24.5124 21.9951C24.6596 22.0648 24.7753 22.2562 25.0041 22.6393L26.1138 24.4701L26.119 24.48C26.3662 24.8904 26.4924 25.0969 26.5477 25.3158C26.6081 25.5546 26.6081 25.8057 26.5477 26.0421C26.4924 26.261 26.3688 26.4725 26.1164 26.8879L23.2819 31.6265L23.2739 31.6388C23.0242 32.0518 22.8979 32.2607 22.7217 32.42C22.5298 32.5915 22.301 32.7184 22.0486 32.7881C21.825 32.8502 21.5673 32.8502 21.0546 32.8502Z" stroke="white" strokeWidth="0.30911" stroke-miterlimit="10" />
		<path d="M27.1371 32.4645H30.2688C30.7316 32.4645 30.9629 32.4645 31.1023 32.3774C31.2522 32.2854 31.3469 32.1312 31.3547 31.9644C31.3626 31.8152 31.2522 31.6336 31.034 31.2779C31.026 31.2655 31.0182 31.253 31.0103 31.2406L29.4405 28.7035L29.422 28.676C29.2012 28.3229 29.0908 28.1462 28.9488 28.0766C28.791 27.9995 28.607 27.9995 28.4491 28.0766C28.3045 28.1462 28.1888 28.3328 27.9601 28.7084L26.3982 31.2456L26.3929 31.2556C26.1642 31.6286 26.0511 31.8152 26.059 31.9694C26.0695 32.1361 26.1615 32.2903 26.3114 32.3823C26.4428 32.4645 26.6743 32.4645 27.1371 32.4645Z" stroke="white" strokeWidth="0.30911" stroke-miterlimit="10" />
	</g>
	<defs>
		<clipPath id="clip0_8687_41907">
			<rect width="48.5385" height="40.8561" fill="white" transform="translate(0 0.0718994)" />
		</clipPath>
	</defs>
</svg>