<svg width="23" height="23" viewBox="0 0 23 23" fill="none" xmlns="http://www.w3.org/2000/svg">
<path fill-rule="evenodd" clip-rule="evenodd" d="M12.8972 8.74219L20.0998 1.1084H22.4876L22.4774 1.11967L13.9585 10.151L21.7579 20.5027C21.9561 20.7657 21.9884 21.1182 21.8415 21.413C21.704 21.6888 21.4315 21.8695 21.1273 21.8915H16.2432C15.9942 21.8735 15.7639 21.7489 15.6124 21.548L10.1242 14.2636L2.96349 21.8915H0.512207L9.06277 12.8547L1.26343 2.50307C1.06526 2.24007 1.0329 1.8876 1.17985 1.5929C1.32679 1.2982 1.62778 1.11195 1.95708 1.11195H6.71523C6.98793 1.11195 7.24479 1.24004 7.40889 1.45784L12.8972 8.74219ZM12.1662 10.6585C12.1415 10.6299 12.1191 10.6 12.0988 10.569L6.28217 2.84895H3.69884L16.7391 20.1569H19.3225L12.1662 10.6585Z" fill="white"/>
</svg>
