<svg width="24" height="25" viewBox="0 0 24 25" fill="none" xmlns="http://www.w3.org/2000/svg">
<path d="M15.4162 11.8756L10.9162 8.87563C10.8033 8.80025 10.6719 8.75697 10.5363 8.7504C10.4006 8.74382 10.2657 8.77421 10.146 8.83831C10.0263 8.90241 9.92619 8.99783 9.85645 9.11436C9.7867 9.2309 9.74991 9.36419 9.75 9.5V15.5C9.74991 15.6358 9.7867 15.7691 9.85645 15.8856C9.92619 16.0022 10.0263 16.0976 10.146 16.1617C10.2657 16.2258 10.4006 16.2562 10.5363 16.2496C10.6719 16.243 10.8033 16.1998 10.9162 16.1244L15.4162 13.1244C15.5191 13.0559 15.6035 12.9631 15.6618 12.8542C15.7202 12.7452 15.7507 12.6236 15.7507 12.5C15.7507 12.3764 15.7202 12.2548 15.6618 12.1458C15.6035 12.0369 15.5191 11.9441 15.4162 11.8756ZM11.25 14.0984V10.9063L13.6481 12.5L11.25 14.0984ZM21.9684 7.0175C21.8801 6.67189 21.7109 6.35224 21.4747 6.08491C21.2385 5.81758 20.9421 5.61024 20.61 5.48C17.3962 4.23875 12.2812 4.25 12 4.25C11.7187 4.25 6.60375 4.23875 3.39 5.48C3.0579 5.61024 2.76153 5.81758 2.52534 6.08491C2.28915 6.35224 2.1199 6.67189 2.03156 7.0175C1.78875 7.95313 1.5 9.66313 1.5 12.5C1.5 15.3369 1.78875 17.0469 2.03156 17.9825C2.11977 18.3283 2.28895 18.6481 2.52515 18.9156C2.76136 19.1831 3.0578 19.3906 3.39 19.5209C6.46875 20.7088 11.2875 20.75 11.9381 20.75H12.0619C12.7125 20.75 17.5341 20.7088 20.61 19.5209C20.9422 19.3906 21.2386 19.1831 21.4748 18.9156C21.711 18.6481 21.8802 18.3283 21.9684 17.9825C22.2112 17.045 22.5 15.3369 22.5 12.5C22.5 9.66313 22.2112 7.95313 21.9684 7.0175ZM20.5162 17.6113C20.4877 17.7263 20.4323 17.8329 20.3545 17.9224C20.2768 18.0118 20.179 18.0816 20.0691 18.1259C17.1019 19.2716 12.0553 19.2509 12.0066 19.2509H12C11.9494 19.2509 6.90656 19.2697 3.9375 18.1259C3.8276 18.0816 3.72977 18.0118 3.65204 17.9224C3.57431 17.8329 3.51888 17.7263 3.49031 17.6113C3.2625 16.7553 3 15.1784 3 12.5C3 9.82157 3.2625 8.24469 3.48375 7.39344C3.51179 7.27774 3.56697 7.17037 3.64473 7.08022C3.7225 6.99007 3.8206 6.91972 3.93094 6.875C6.79219 5.76969 11.5866 5.75 11.9794 5.75H12.0047C12.0553 5.75 17.1028 5.73313 20.0672 6.875C20.1771 6.91936 20.2749 6.98913 20.3526 7.07859C20.4304 7.16806 20.4858 7.27467 20.5144 7.38969C20.7375 8.24469 21 9.82157 21 12.5C21 15.1784 20.7375 16.7553 20.5162 17.6066V17.6113Z" fill="#F5F7FA"/>
</svg>
